<svg xmlns="http://www.w3.org/2000/svg" width="147" height="147" fill="none" xmlns:v="https://vecta.io/nano"><mask id="A" mask-type="alpha" maskUnits="userSpaceOnUse" x="0" y="0" width="147" height="147"><path fill="#f1f1f1" d="M0 0h147v147H0z"/></mask><g mask="url(#A)"><path d="M116.198 96.268c-1.544 3.599-3.372 6.911-5.49 9.957-2.886 4.151-5.249 7.025-7.071 8.621-2.823 2.619-5.848 3.961-9.088 4.037-2.325 0-5.13-.667-8.395-2.022-3.275-1.348-6.285-2.015-9.037-2.015-2.886 0-5.982.667-9.293 2.015-3.316 1.355-5.988 2.06-8.03 2.13-3.106.134-6.203-1.246-9.293-4.145-1.973-1.736-4.44-4.711-7.396-8.927-3.171-4.501-5.779-9.721-7.821-15.672C33.097 83.82 32 77.595 32 71.569c0-6.903 1.478-12.856 4.44-17.845 2.327-4.007 5.424-7.168 9.299-9.489a24.85 24.85 0 0 1 12.572-3.579c2.467 0 5.703.77 9.724 2.283 4.009 1.518 6.584 2.288 7.713 2.288.844 0 3.704-.9 8.552-2.695 4.585-1.664 8.454-2.354 11.624-2.082 8.59.699 15.044 4.116 19.336 10.27-7.683 4.696-11.483 11.273-11.407 19.711.069 6.572 2.432 12.041 7.077 16.383 2.105 2.015 4.456 3.573 7.071 4.679-.567 1.659-1.166 3.249-1.802 4.775zM96.497 18.061c0 5.151-1.865 9.961-5.584 14.413-4.487 5.292-9.915 8.35-15.8 7.868-.075-.618-.118-1.268-.118-1.952 0-4.945 2.134-10.237 5.924-14.564 1.892-2.191 4.298-4.013 7.216-5.466C91.045 16.927 93.8 16.136 96.39 16a18.88 18.88 0 0 1 .107 2.061h0z" fill="#000"/></g></svg>
