<svg xmlns="http://www.w3.org/2000/svg" width="92" height="92" fill="none" xmlns:v="https://vecta.io/nano"><mask id="A" mask-type="alpha" maskUnits="userSpaceOnUse" x="0" y="0" width="92" height="92"><path fill="#c4c4c4" d="M0 0h92v92H0z"/></mask><g mask="url(#A)"><path d="M69.952 60.979c-.898 2.061-1.96 3.959-3.191 5.703-1.678 2.378-3.052 4.024-4.111 4.938-1.642 1.501-3.4 2.269-5.284 2.313-1.352 0-2.983-.382-4.881-1.158-1.904-.772-3.654-1.154-5.254-1.154-1.678 0-3.478.382-5.403 1.154s-3.481 1.18-4.669 1.22c-1.806.076-3.606-.714-5.403-2.374-1.147-.994-2.581-2.699-4.3-5.113-1.844-2.578-3.36-5.568-4.547-8.977C21.638 53.848 21 50.283 21 46.831c0-3.954.86-7.364 2.581-10.222 1.353-2.296 3.153-4.106 5.406-5.436a14.61 14.61 0 0 1 7.309-2.05c1.435 0 3.316.441 5.653 1.308 2.331.87 3.828 1.311 4.484 1.311.491 0 2.153-.516 4.972-1.544 2.666-.953 4.915-1.348 6.758-1.193 4.994.401 8.746 2.357 11.241 5.883-4.466 2.69-6.676 6.457-6.632 11.291.04 3.765 1.414 6.897 4.115 9.385A13.53 13.53 0 0 0 71 58.244c-.33.951-.678 1.861-1.048 2.735zM58.498 16.18c0 2.951-1.085 5.706-3.246 8.256-2.609 3.032-5.764 4.783-9.186 4.507a9.13 9.13 0 0 1-.069-1.118c0-2.833 1.241-5.864 3.444-8.343 1.1-1.255 2.499-2.298 4.195-3.131 1.693-.82 3.294-1.273 4.8-1.351.044.395.062.789.062 1.18h0z" fill="#000"/></g></svg>