<svg xmlns="http://www.w3.org/2000/svg" width="92" height="92" fill="none" xmlns:v="https://vecta.io/nano"><mask id="A" mask-type="alpha" maskUnits="userSpaceOnUse" x="0" y="0" width="92" height="92"><path fill="#c4c4c4" d="M0 0h92v92H0z"/></mask><g mask="url(#A)"><path d="M84.264 44.28c0-1.03.803-1.874 1.786-1.874.475 0 .918.203 1.262.54.344.355.524.827.524 1.317s-.18.962-.524 1.317-.786.557-1.262.557c-.983 0-1.786-.827-1.786-1.858zm-.147 0c0 1.114.868 2.026 1.95 2.026.524 0 .999-.203 1.36-.591A2.11 2.11 0 0 0 88 44.28c0-.54-.197-1.047-.573-1.435a1.87 1.87 0 0 0-1.36-.591c-1.081 0-1.95.912-1.95 2.026zm1.213 1.199h.278v-.946h.623c.098 0 .18 0 .246.034.082.051.131.152.147.287l.033.371v.169c.016.034.016.051.033.068h.344v-.051c-.049-.017-.066-.068-.082-.135-.016-.034-.016-.101-.016-.186l-.016-.287c0-.135-.033-.219-.066-.27a.59.59 0 0 0-.197-.135c.098-.051.164-.118.213-.203s.066-.186.066-.321c0-.253-.098-.422-.279-.523-.098-.051-.229-.068-.377-.068h-.934l-.016 2.195zm.262-1.199v-.76h.655c.098 0 .18.017.229.051.098.051.147.169.147.321s-.033.253-.115.304c-.066.051-.164.084-.295.084h-.623zM7.963 47.066L0 59.966h5.44l7.668-12.326-5.145-.574zm32.785-.287V42H25.265c-2.114.135-3.031 1.182-3.719 1.925-.737.794-1.147 2.465-1.147 2.465v-4.356h-8.241c-.623 0-1.212.27-1.655.912-.459.625-2.343 3.833-2.343 3.833h32.588zm42.108 0V42H66.291c-2.097.135-3.031 1.182-3.719 1.925-.737.794-1.147 2.465-1.147 2.465v.388h21.431zm-36.668-4.762h-4.637v4.762h4.637v-4.762zm15.188 0h-4.62v4.762h4.62v-4.762zm0 6.484l-4.555-.287v5.522s-.016 1.587-1.507 1.587h-7.799s-1.327-.118-1.327-1.57v-6.281l-4.588-.338v8.46c.737 4.053 4.293 4.373 4.293 4.373l.426.034h10.568s4.522-.371 4.522-4.863l-.033-6.636zM15.68 59.966h21.66c3.768-.777 4.162-4.323 4.162-4.323.18-1.047.082-1.908.082-1.908-.115-.709-1.425-3.85-4.244-4.12-1.688-.169-16.712-1.401-16.712-1.401.295 1.553.967 2.347 1.425 2.786 1.049 1.03 2.703 1.334 2.703 1.334l11.584.996c.36.017 1.032.118 1.016 1.03 0 .118-.098.912-.95.912H20.202V48.18l-4.506-.338c-.016 0-.016 12.124-.016 12.124zM61.408 60h16.581c4.162-.253 4.752-4.323 4.752-4.323.147-1.064.033-1.942.033-1.942-.115-.962-1.442-3.867-4.276-4.154-1.671-.169-16.794-1.081-16.794-1.081.442 1.604 1.049 2.094 1.507 2.533 1.049 1.047 2.605 1.283 2.605 1.283l11.698 1.013c.36.017 1.098.051 1.098.963 0 .27-.131.557-.295.709 0 0-.393.22-.77.22H61.458L61.408 60z" fill="#00539b"/></g></svg>
