<svg xmlns="http://www.w3.org/2000/svg" width="147" height="147" fill="none" xmlns:v="https://vecta.io/nano"><mask id="A" mask-type="alpha" maskUnits="userSpaceOnUse" x="0" y="0" width="147" height="147"><path fill="#c4c4c4" d="M0 0h147v147H0z"/></mask><g mask="url(#A)"><path d="M133.227 62.546c0-1.602 1.241-2.916 2.76-2.916.734 0 1.418.315 1.95.84a2.94 2.94 0 0 1 .81 2.049 2.94 2.94 0 0 1-.81 2.049c-.532.552-1.216.867-1.95.867-1.519 0-2.76-1.287-2.76-2.889zm-.228 0c0 1.733 1.342 3.152 3.013 3.152a2.8 2.8 0 0 0 2.102-.919c.557-.604.886-1.392.886-2.233a3.18 3.18 0 0 0-.886-2.233c-.583-.604-1.317-.919-2.102-.919-1.671 0-3.013 1.418-3.013 3.152zm1.874 1.865h.43V62.94h.962c.152 0 .279 0 .38.053.127.079.203.236.228.447l.051.578v.263c.025.052.025.079.05.105h.532v-.079c-.076-.026-.101-.105-.127-.21-.025-.052-.025-.158-.025-.289l-.025-.447c0-.21-.051-.341-.101-.42a.92.92 0 0 0-.304-.21.78.78 0 0 0 .329-.315c.076-.131.101-.289.101-.499 0-.394-.152-.657-.43-.814-.152-.079-.355-.105-.583-.105h-1.443l-.025 3.415zm.405-1.865v-1.182h1.013c.152 0 .278.026.354.079.152.079.228.263.228.499s-.051.394-.177.473c-.102.079-.253.131-.456.131h-.962zM15.306 66.88L3 86.948h8.407l11.85-19.175-7.951-.893zm50.668-.447V59H42.045c-3.266.21-4.684 1.839-5.748 2.994-1.139 1.235-1.772 3.835-1.772 3.835v-6.777H21.788c-.962 0-1.874.42-2.557 1.418-.709.972-3.621 5.963-3.621 5.963h50.364zm65.075 0V59h-25.6c-3.241.21-4.684 1.839-5.748 2.994-1.139 1.235-1.772 3.835-1.772 3.835v.604h33.12zM74.38 59.026h-7.166v7.407h7.166v-7.407zm23.473 0h-7.141v7.407h7.141v-7.407zm0 10.086l-7.039-.447v8.589s-.025 2.469-2.329 2.469H76.431s-2.051-.184-2.051-2.443V67.51l-7.09-.525v13.159c1.139 6.304 6.634 6.803 6.634 6.803l.658.052h16.332s6.989-.578 6.989-7.565l-.051-10.323zM27.232 86.948h33.475c5.824-1.208 6.432-6.724 6.432-6.724.279-1.629.127-2.968.127-2.968-.177-1.103-2.203-5.989-6.558-6.409-2.608-.263-25.827-2.18-25.827-2.18.456 2.417 1.494 3.651 2.203 4.334 1.621 1.602 4.178 2.075 4.178 2.075l17.902 1.55c.557.026 1.595.184 1.57 1.602 0 .184-.152 1.418-1.469 1.418H34.221V68.614l-6.963-.525c-.025 0-.025 18.859-.025 18.859zM97.904 87h25.625c6.431-.394 7.343-6.724 7.343-6.724.228-1.655.051-3.021.051-3.021-.178-1.497-2.229-6.015-6.609-6.462-2.583-.263-25.954-1.681-25.954-1.681.684 2.495 1.621 3.257 2.329 3.94 1.621 1.629 4.026 1.996 4.026 1.996l18.079 1.576c.558.026 1.697.079 1.697 1.497 0 .42-.203.867-.456 1.103 0 0-.608.341-1.19.341H97.98L97.904 87z" fill="#00539b"/></g></svg>