<svg xmlns="http://www.w3.org/2000/svg" width="92" height="92" fill="none" xmlns:v="https://vecta.io/nano"><mask id="A" mask-type="alpha" maskUnits="userSpaceOnUse" x="0" y="0" width="92" height="92"><path fill="#c4c4c4" d="M0 0h92v92H0z"/></mask><g mask="url(#A)"><path d="M80.264 55.273c-4.286.028-8.345.062-9.477-.038-2.29-.199-3.819-1.697-3.997-3.901-.12-1.446-.12-2.645-.007-3.785.208-2.146 2.003-4.19 4.004-4.288l6.107-.019L87 43.26v-4.192l-10.47-.019c-3.248-.015-4.883-.017-5.919.019-2.279.088-4.187.899-5.67 2.405-1.406 1.423-2.245 3.687-2.369 5.978-.071 1.237-.094 2.852 0 3.813.233 2.465 1.031 4.399 2.369 5.754 1.429 1.455 3.605 2.377 5.672 2.405H87v-4.19l-6.736.038M34.643 39.293v4.188h9.971v15.87h4.209v-15.87h9.971v-4.187H34.643zm-4.372 7.919c-.03-2.255-.826-4.19-2.369-5.754-1.609-1.637-4.063-2.317-5.67-2.403-1.397-.079-6.903-.053-8.195 0-1.821.077-3.148.62-3.813 1.117l-.013-7.628H6v26.88h4.205l.011-12.201c.167-2.129 1.782-3.802 3.843-3.982 1.652-.141 6.61-.103 8.165.002 2.136.148 3.712 1.817 3.837 4.066.041.828-.002 12.115-.002 12.115h4.213V47.212" fill="#8cc751"/></g></svg>