<svg xmlns="http://www.w3.org/2000/svg" width="147" height="148" fill="none" xmlns:v="https://vecta.io/nano"><mask id="A" mask-type="alpha" maskUnits="userSpaceOnUse" x="0" y="0" width="147" height="148"><path fill="#c4c4c4" d="M0 0h147v147.35H0z"/></mask><g mask="url(#A)"><path d="M52.931 98.612v8.806c0 2.502-1.241 3.836-3.497 3.836-2.268 0-3.517-1.373-3.517-3.942v-8.69h-3.12v8.796c0 4.328 2.404 6.809 6.596 6.809 4.231 0 6.658-2.528 6.658-6.936v-8.679h-3.12zm11.48 0l-6.777 15.375h3.185l1.308-2.978.094-.223h7.04l1.381 3.201h3.272l-6.714-15.284-.06-.091h-2.728zm18.552 0l-3.492 10.579-3.399-10.571h-3.321l5.36 15.377h2.584l3.499-10.101 3.497 10.101h2.606l5.347-15.377h-3.236l-3.406 10.571-3.493-10.579h-2.545zm30.535 0v15.362h3.079V98.612h-3.079zm-88.317.001v15.383h3.121v-6.248h7.047v6.248h3.122V98.613H35.35v6.206h-7.047v-6.206h-3.121zm72.979.01v15.361h11.616v-2.801h-8.537v-3.809h5.677v-2.801h-5.677v-3.149h8.24v-2.801H98.16zm-32.427 3.881l2.225 5.15h-.008l.151.356h-4.721l.15-.356h-.003l2.205-5.15z" fill="#232527"/><path d="M64.047 20c-1.238.11-4.583.871-4.583.871h-.001c-7.54 1.949-9.323 8.792-9.323 8.792-.368 1.151-.535 2.33-.585 3.441v1.512c.1 2.336.62 4.081.62 4.081 2.519 11.169 14.903 29.52 17.565 33.375.189.187.34.12.34.12.287-.079.265-.355.265-.355l.005.001C72.449 30.862 64.047 20 64.047 20h0zm13.546 0s-8.439 10.867-4.336 51.868h.005c.032.26.216.314.216.314.275.106.415-.157.415-.157l.001.003c2.73-3.954 15.044-22.205 17.551-33.331 0 0 1.36-5.385.047-9.034 0 0-1.864-6.949-9.414-8.785 0 0-2.176-.552-4.487-.878h0zM38.669 32.301s-7.185 6.819-7.542 14.048h.003v1.096l.015.25c.309 5.83 4.695 9.28 4.695 9.28 7.066 6.887 24.175 15.581 28.151 17.554.056.021.261.088.382-.064 0 0 .063-.048.091-.133v-.181c-.003-.01-.008-.021-.013-.032h.001C53.564 50.333 38.669 32.301 38.669 32.301h0zm64.284 0s-14.85 17.975-25.732 41.711l.004-.001s-.129.275.079.453a.42.42 0 0 0 .148.066h.151c.027-.008.056-.018.085-.038v.003c4.084-2.027 21.06-10.664 28.093-17.519 0 0 4.454-3.576 4.687-9.319.514-7.975-7.514-15.356-7.514-15.356h0zm13.366 23.613S92.109 68.907 79.592 77.35l.001.001.003.003s-.227.149-.148.415c0 0 .119.215.292.215v.001l21.875-.053s2.194-.088 4.904-1.129c0 0 6.035-1.919 9.17-8.77 0 0 1.432-2.865 1.453-6.89v-.171c-.011-1.552-.229-3.27-.823-5.059h0zm-91.022.061c-2.203 6.819.763 12.314.767 12.323 3.09 6.53 8.989 8.508 8.989 8.508 2.723 1.119 5.448 1.196 5.448 1.196.425.078 16.94.008 21.364-.013.187-.001.29-.19.29-.19.013-.021.024-.042.03-.061v-.171c-.037-.114-.134-.195-.134-.195l.003-.001c-12.511-8.441-36.757-21.397-36.757-21.397h0zm36.064 24.11l-28.48.999c3.089 5.506 8.29 9.785 13.709 8.471 3.739-.935 12.21-6.844 15.007-8.84l-.009-.008c.217-.195.14-.352.14-.352-.072-.256-.366-.255-.366-.255v-.014zm18.863.021l-.003.01s-.25.032-.32.219c0 0-.061.256.108.383l-.003.003c2.727 1.955 10.993 7.734 14.975 8.856 0 0 .603.205 1.614.242h.608c2.668-.094 7.315-1.464 11.539-8.72l-28.518-.993z" fill="#cf0a2c"/></g></svg>