<svg xmlns="http://www.w3.org/2000/svg" width="92" height="92" fill="none" xmlns:v="https://vecta.io/nano"><mask id="A" mask-type="alpha" maskUnits="userSpaceOnUse" x="0" y="0" width="92" height="92"><path fill="#c4c4c4" d="M0 0h92v92H0z"/></mask><g mask="url(#A)"><path d="M32.617 68.357v6.498c0 1.846-.916 2.831-2.58 2.831-1.674 0-2.595-1.013-2.595-2.909v-6.412h-2.302v6.491c0 3.194 1.774 5.024 4.867 5.024 3.122 0 4.913-1.865 4.913-5.118v-6.404h-2.303zm8.471 0l-5.001 11.345h2.35l.965-2.197.069-.165h5.195l1.019 2.362H48.1l-4.954-11.278-.045-.067h-2.013zm13.69 0l-2.577 7.806-2.509-7.8h-2.45l3.955 11.346h1.907l2.582-7.454 2.58 7.454h1.923l3.946-11.346h-2.388l-2.514 7.8-2.578-7.806h-1.878zm22.532 0v11.336h2.272V68.357h-2.272zm-65.171.001v11.351h2.303v-4.61h5.2v4.61h2.304V68.358h-2.304v4.579h-5.2v-4.579H12.14zm53.853.008v11.336h8.572v-2.067h-6.3v-2.811h4.189v-2.068h-4.189v-2.324h6.08v-2.067h-8.352zM42.064 71.23l1.642 3.8H43.7l.112.262h-3.483l.11-.262h-.002l1.627-3.8z" fill="#232527"/><path d="M40.82 10.347c-.913.081-3.382.643-3.382.643h-.001c-5.564 1.438-6.879 6.488-6.879 6.488-.272.849-.395 1.719-.431 2.539v1.116c.074 1.724.457 3.011.457 3.011 1.859 8.242 10.997 21.784 12.961 24.629.139.138.251.088.251.088.212-.059.195-.262.195-.262l.004.001c3.025-30.237-3.175-38.252-3.175-38.252h0zm9.996 0s-6.227 8.019-3.2 38.274h.004c.023.192.16.232.16.232.203.078.306-.116.306-.116l.001.002c2.014-2.917 11.101-16.386 12.952-24.596 0 0 1.003-3.974.035-6.666 0 0-1.376-5.128-6.947-6.483 0 0-1.605-.408-3.311-.648h0zm-28.723 9.077s-5.302 5.032-5.565 10.367h.002v.808l.011.184c.228 4.302 3.464 6.848 3.464 6.848 5.214 5.082 17.839 11.498 20.773 12.953.041.015.193.065.282-.048 0 0 .046-.035.067-.098v-.134c-.002-.008-.006-.015-.01-.024h.001c-8.034-17.551-19.026-30.857-19.026-30.857h0zm47.437 0s-10.958 13.264-18.989 30.78l.003-.001s-.095.203.059.334a.31.31 0 0 0 .109.049h.111c.02-.006.041-.013.063-.028v.002c3.014-1.496 15.541-7.869 20.731-12.928 0 0 3.286-2.639 3.459-6.876.38-5.885-5.544-11.332-5.544-11.332h0zm9.863 17.425s-17.865 9.587-27.102 15.818h.001l.002.002s-.168.11-.109.306c0 0 .088.159.215.159v.001l16.142-.039s1.619-.065 3.619-.833c0 0 4.453-1.416 6.766-6.472 0 0 1.057-2.114 1.072-5.084v-.126a12.07 12.07 0 0 0-.607-3.733h0zm-67.168.045c-1.625 5.032.563 9.087.566 9.093 2.28 4.819 6.633 6.278 6.633 6.278a12.85 12.85 0 0 0 4.02.883c.314.057 12.5.006 15.765-.01.138-.001.214-.14.214-.14.01-.015.018-.031.022-.045v-.126c-.027-.084-.099-.144-.099-.144l.002-.001c-9.232-6.229-27.124-15.789-27.124-15.789h0zm26.612 17.792l-21.016.737c2.279 4.063 6.117 7.22 10.116 6.251 2.759-.69 9.01-5.05 11.074-6.523l-.007-.006c.16-.144.103-.26.103-.26-.053-.189-.27-.189-.27-.189v-.01zm13.92.015l-.002.008s-.184.023-.236.162c0 0-.045.189.079.283l-.002.002c2.012 1.443 8.112 5.707 11.05 6.535 0 0 .445.151 1.191.178h.448c1.969-.069 5.398-1.08 8.515-6.435l-21.044-.732z" fill="#cf0a2c"/></g></svg>