<svg xmlns="http://www.w3.org/2000/svg" width="147" height="147" fill="none" xmlns:v="https://vecta.io/nano"><mask id="A" mask-type="alpha" maskUnits="userSpaceOnUse" x="0" y="0" width="147" height="147"><path fill="#c4c4c4" d="M0 0h147v147H0z"/></mask><g mask="url(#A)"><path d="M37.462 74.005V57.601h2.565 2.565v1.084l.02 1.084a17.25 17.25 0 0 0 .719-.437c4.537-2.834 11.132-3.687 17.048-2.206 5.329 1.335 9.193 4.503 10.566 8.666.803 2.432.758 5.137-.123 7.49-1.096 2.926-3.348 5.279-6.597 6.891-2.843 1.41-6.089 2.117-9.729 2.117-3.017 0-5.831-.502-8.308-1.481-.983-.389-2.243-1.027-3.007-1.523l-.589-.383v5.753 5.753h-2.565-2.565V74.005zm19.516 3.923c2.885-.408 5.124-1.321 6.803-2.774 1.271-1.1 2.156-2.628 2.491-4.3.137-.684.138-2.299.001-2.981-.395-1.968-1.526-3.687-3.218-4.893-.682-.486-2.068-1.178-2.953-1.475-2.498-.838-5.528-1.086-8.302-.68-4.817.705-8.073 3.088-8.946 6.547-.385 1.526-.317 3.174.193 4.614 1.157 3.271 4.568 5.448 9.389 5.991.969.109 3.63.081 4.544-.048h0zm17.007-3.923V57.601h2.565 2.565v1.084c0 .596.011 1.084.025 1.084s.296-.176.627-.392c.767-.499 2.281-1.244 3.251-1.602 4.19-1.542 9.306-1.791 13.783-.67 7.298 1.827 11.595 6.833 11.19 13.034-.31 4.733-3.468 8.622-8.663 10.665-1.695.666-3.431 1.087-5.604 1.356-1.147.142-4.239.142-5.436 0-3.389-.403-6.365-1.407-8.685-2.929l-.488-.32v5.749 5.749H76.55h-2.565V74.005h0zm19.64 3.899c3.996-.595 6.813-2.201 8.292-4.728.86-1.468 1.182-3.42.863-5.233-.663-3.768-3.983-6.375-9.067-7.12-3.355-.491-7.144-.002-9.719 1.255-2.629 1.283-4.211 3.199-4.751 5.753-.142.67-.141 2.394.001 3.051.382 1.769 1.247 3.233 2.559 4.333 1.807 1.515 4.158 2.417 7.21 2.765a26.83 26.83 0 0 0 4.613-.078h0zm-77.352 4.351c-2.721-.24-5.044-.774-7.019-1.616-4.492-1.914-7.33-5.143-8.1-9.219-.147-.779-.203-2.532-.108-3.371.556-4.887 4.166-8.758 9.873-10.587 3.037-.973 6.776-1.291 10.131-.862 6.148.787 10.799 3.63 12.842 7.851 1.664 3.437 1.453 7.611-.547 10.821-.901 1.446-2.385 2.938-3.914 3.936-2.379 1.552-5.22 2.518-8.671 2.948-.691.086-3.847.156-4.489.099zm3.639-4.274c2.676-.283 4.927-1.045 6.621-2.241 1.385-.977 2.48-2.418 2.972-3.907.288-.872.345-1.281.345-2.472s-.056-1.594-.342-2.466c-.938-2.867-3.684-5-7.519-5.842-3.363-.738-7.285-.482-10.191.667-2.096.829-3.751 2.17-4.721 3.827-1.032 1.762-1.266 4.162-.608 6.23.709 2.228 2.578 4.093 5.149 5.139 1.4.57 3.134.967 4.851 1.111a31.01 31.01 0 0 0 3.444-.045zm105.818 4.276a69.52 69.52 0 0 0-.836-.083c-2.832-.268-5.809-1.16-7.991-2.394-2.951-1.669-5.006-4.041-5.944-6.86a11.49 11.49 0 0 1-.305-6.025c.664-2.983 2.485-5.516 5.312-7.389 3.729-2.471 9.211-3.568 14.504-2.903 4.397.553 8.02 2.156 10.54 4.667 1.92 1.912 3.024 4.152 3.343 6.784.083.684.07 2.067-.026 2.793-.692 5.226-4.846 9.221-11.208 10.777-1.929.472-3.14.615-5.409.638-.982.01-1.872.008-1.98-.004h0zm3.374-4.25c3.387-.311 6.148-1.424 7.92-3.194 1.2-1.198 1.896-2.517 2.171-4.112.113-.657.112-2.026-.003-2.708-.618-3.668-3.861-6.327-8.666-7.105a17.25 17.25 0 0 0-3.123-.248c-5.388 0-9.568 2.026-11.176 5.416-.479 1.011-.7 2.053-.7 3.303 0 1.649.385 2.957 1.255 4.26 1.597 2.392 4.625 3.92 8.633 4.357.827.09 2.854.106 3.689.03h0z" fill="#006b33"/></g></svg>