<svg xmlns="http://www.w3.org/2000/svg" width="92" height="92" fill="none" xmlns:v="https://vecta.io/nano"><mask id="A" mask-type="alpha" maskUnits="userSpaceOnUse" x="0" y="0" width="92" height="92"><path fill="#c4c4c4" d="M0 0h92v92H0z"/></mask><g mask="url(#A)"><path d="M23.392 53.385V42.771h1.645 1.646v.702l.013.702a11.01 11.01 0 0 0 .462-.283c2.911-1.834 7.142-2.386 10.937-1.427 3.419.864 5.897 2.914 6.779 5.607a7.45 7.45 0 0 1-.079 4.846c-.703 1.893-2.148 3.416-4.232 4.459-1.824.913-3.907 1.37-6.241 1.37-1.936 0-3.741-.325-5.33-.959-.63-.252-1.439-.664-1.929-.985l-.378-.248v3.723V64h-1.646-1.645V53.385zm12.52 2.539c1.851-.264 3.287-.855 4.364-1.795.815-.712 1.383-1.7 1.598-2.782a7.1 7.1 0 0 0 0-1.929c-.253-1.273-.979-2.386-2.065-3.166a8.98 8.98 0 0 0-1.895-.955c-1.603-.542-3.546-.703-5.326-.44-3.09.456-5.179 1.998-5.739 4.236-.247.988-.203 2.054.124 2.986.742 2.117 2.931 3.525 6.023 3.877a18.35 18.35 0 0 0 2.915-.031h0zm10.91-2.539V42.771h1.645 1.646v.702c0 .386.007.702.016.702s.19-.114.402-.254a12.93 12.93 0 0 1 2.086-1.036c2.688-.998 5.97-1.159 8.842-.434 4.682 1.182 7.439 4.422 7.179 8.434-.199 3.063-2.225 5.579-5.557 6.901-1.087.431-2.201.703-3.595.878-.736.092-2.719.092-3.487 0-2.174-.261-4.083-.91-5.571-1.895l-.313-.207v3.72V64h-1.646-1.645V53.385h0zm12.6 2.523c2.564-.385 4.371-1.424 5.32-3.059.551-.95.758-2.213.553-3.386-.425-2.438-2.555-4.125-5.817-4.607-2.153-.318-4.583-.001-6.235.812-1.687.83-2.701 2.07-3.048 3.723a7.17 7.17 0 0 0 .001 1.974c.245 1.145.8 2.092 1.642 2.804 1.159.98 2.668 1.564 4.625 1.789.648.075 2.315.046 2.959-.051h0zM9.798 58.724c-1.746-.155-3.236-.501-4.503-1.045C2.414 56.44.593 54.351.099 51.713a10.16 10.16 0 0 1-.069-2.181c.357-3.162 2.673-5.667 6.334-6.851 1.948-.63 4.347-.836 6.499-.558 3.944.509 6.928 2.349 8.239 5.08 1.068 2.224.932 4.925-.351 7.002-.578.936-1.53 1.901-2.511 2.547-1.526 1.005-3.349 1.63-5.563 1.907-.443.056-2.468.101-2.88.064zm2.335-2.765c1.717-.183 3.161-.676 4.247-1.45.888-.632 1.591-1.564 1.907-2.528.185-.564.221-.829.221-1.6s-.036-1.031-.219-1.596c-.602-1.855-2.363-3.235-4.824-3.78-2.158-.478-4.674-.312-6.538.431-1.345.536-2.406 1.404-3.029 2.476-.662 1.14-.812 2.693-.39 4.031.455 1.442 1.654 2.649 3.303 3.326.898.369 2.011.625 3.112.719.423.036 1.768.018 2.209-.029zm67.885 2.767l-.537-.053c-1.817-.173-3.726-.75-5.127-1.549-1.893-1.08-3.211-2.615-3.813-4.439a7.49 7.49 0 0 1-.195-3.899c.426-1.93 1.594-3.569 3.408-4.781 2.392-1.599 5.909-2.309 9.305-1.878 2.821.357 5.145 1.395 6.762 3.019 1.232 1.237 1.94 2.686 2.144 4.389.053.443.045 1.338-.017 1.807-.444 3.382-3.109 5.966-7.19 6.973-1.237.305-2.014.398-3.47.413-.63.006-1.201.005-1.27-.003h0zm2.164-2.75c2.173-.201 3.944-.921 5.081-2.066.77-.775 1.217-1.629 1.393-2.66.073-.425.072-1.311-.002-1.752-.396-2.374-2.477-4.094-5.56-4.597a10.97 10.97 0 0 0-2.003-.16c-3.456 0-6.138 1.311-7.17 3.505-.307.654-.449 1.329-.449 2.137 0 1.067.247 1.913.805 2.756 1.024 1.548 2.967 2.537 5.539 2.819a17.33 17.33 0 0 0 2.366.019z" fill="#006b33"/></g></svg>