<svg xmlns="http://www.w3.org/2000/svg" width="147" height="148" fill="none" xmlns:v="https://vecta.io/nano"><mask id="A" mask-type="alpha" maskUnits="userSpaceOnUse" x="0" y="0" width="147" height="148"><path fill="#c4c4c4" d="M0 0h147v147.35H0z"/></mask><g mask="url(#A)"><path d="M122.196 78.786h-.111l-4.734-16.129h-7.638v20.333h5.059l-.285-16.686h.112l5.084 16.686h7.327V62.656h-5.093l.279 16.13zm-97.164-16.13l-3.81 20.549h5.56l2.817-18.652h.117l2.743 18.653h5.527l-3.793-20.549h-9.161zm31.099.002l-2.541 15.711h-.115l-2.529-15.711h-8.393l-.456 20.547h5.146l.129-18.478h.116l3.437 18.478h5.22l3.438-18.472.114-.006.134 18.478h5.148l-.454-20.546H56.13zM8.472 67.942a2.62 2.62 0 0 1-.021-1.072c.148-.66.593-1.383 1.881-1.383 1.207 0 1.91.746 1.91 1.861v1.269h5.139v-1.434c0-4.483-4.027-5.182-6.942-5.182-3.658 0-6.645 1.213-7.195 4.566-.15.9-.169 1.726.05 2.766.894 4.2 8.204 5.416 9.266 8.072.199.495.135 1.137.037 1.526-.167.672-.629 1.372-2.003 1.372-1.285 0-2.069-.735-2.069-1.857l-.003-1.994H3.003L3 78.039C3 82.623 6.612 84 10.48 84c3.728 0 6.785-1.258 7.279-4.689.251-1.779.066-2.945-.022-3.38-.871-4.305-8.677-5.577-9.265-7.989zm66.956.048c-.101-.41-.073-.826-.024-1.053.144-.656.585-1.372 1.862-1.372 1.193 0 1.894.735 1.894 1.835v1.26h5.084v-1.421c0-4.428-3.99-5.125-6.867-5.125-3.626 0-6.587 1.187-7.126 4.518-.15.896-.174 1.716.047 2.741.886 4.156 8.123 5.363 9.177 7.99.192.495.134 1.126.04 1.511-.168.677-.63 1.356-1.985 1.356-1.279 0-2.049-.724-2.049-1.834l-.004-1.979h-5.469v1.575c0 4.537 3.58 5.898 7.41 5.898 3.682 0 6.713-1.248 7.198-4.642.249-1.756.065-2.912-.021-3.345-.863-4.259-8.594-5.524-9.166-7.913zm23.339 9.863c.004.261-.004.563-.048.783-.102.511-.542 1.479-1.973 1.479-1.426 0-1.871-.967-1.973-1.479-.044-.22-.054-.522-.052-.783V62.654h-5.201v14.727a18.58 18.58 0 0 0 .048 1.357c.353 3.83 3.393 5.068 7.178 5.068s6.819-1.237 7.184-5.068c.018-.205.058-.977.052-1.357V62.654h-5.215v15.199h.001zm40.95-6.2v3.009h2.107v2.98c.006.259-.004.545-.048.78-.092.553-.617 1.487-2.101 1.487s-2.011-.934-2.107-1.487a4.31 4.31 0 0 1-.046-.78V68.24c0-.334.021-.699.084-.964.109-.506.552-1.491 2.049-1.491 1.574 0 1.963 1.04 2.057 1.491.06.285.064.776.064.774v1.157h5.187v-.686c-.002 0 .019-.702-.042-1.344-.381-3.864-3.579-5.081-7.223-5.081s-6.769 1.227-7.222 5.081a13.11 13.11 0 0 0-.09 1.344l-.002 8.645c.002.387.014.673.072 1.358.339 3.741 3.595 5.082 7.238 5.082s6.9-1.341 7.242-5.082a14.74 14.74 0 0 0 .065-1.358v-5.514h-7.284z" fill="#1428a0"/></g></svg>