<svg xmlns="http://www.w3.org/2000/svg" width="92" height="92" fill="none" xmlns:v="https://vecta.io/nano"><mask id="A" mask-type="alpha" maskUnits="userSpaceOnUse" x="0" y="0" width="92" height="92"><path fill="#c4c4c4" d="M0 0h92v92H0z"/></mask><g mask="url(#A)"><path d="M75.67 53.682h-.069l-2.926-10.264h-4.72v12.94h3.127l-.176-10.618h.069l3.142 10.618h4.529v-12.94h-3.148l.172 10.264zM15.617 43.418l-2.355 13.076h3.436l1.741-11.869h.073l1.695 11.87h3.416l-2.344-13.077h-5.662zm19.221.001l-1.571 9.998h-.071l-1.563-9.998h-5.187l-.282 13.075h3.181l.079-11.758h.072l2.124 11.758h3.226l2.125-11.755.071-.004.083 11.758h3.182l-.281-13.075h-5.187zM5.382 46.781c-.06-.267-.045-.535-.013-.682.092-.42.367-.88 1.163-.88.746 0 1.181.475 1.181 1.184v.808h3.176v-.913C10.888 43.445 8.4 43 6.598 43c-2.261 0-4.107.772-4.447 2.905a4.6 4.6 0 0 0 .031 1.76c.552 2.672 5.071 3.447 5.727 5.137.123.315.083.724.023.971-.103.428-.389.873-1.238.873-.794 0-1.279-.468-1.279-1.181l-.002-1.269h-3.41L2 53.207C2 56.123 4.232 57 6.623 57c2.304 0 4.193-.801 4.499-2.984.155-1.132.041-1.874-.014-2.151-.539-2.739-5.363-3.549-5.726-5.084zm41.382.031a1.66 1.66 0 0 1-.015-.67c.089-.418.362-.873 1.151-.873.737 0 1.17.468 1.17 1.168v.802h3.142v-.905c0-2.817-2.466-3.261-4.244-3.261-2.241 0-4.071.755-4.404 2.875a4.49 4.49 0 0 0 .029 1.744c.547 2.644 5.021 3.413 5.672 5.085.119.315.083.717.025.962-.104.431-.389.863-1.227.863-.79 0-1.266-.461-1.266-1.167l-.002-1.259h-3.38v1.002c0 2.887 2.213 3.753 4.58 3.753 2.276 0 4.149-.794 4.449-2.954.154-1.117.04-1.853-.013-2.129-.534-2.71-5.312-3.515-5.665-5.035zm14.425 6.276c.002.166-.003.358-.03.498-.063.325-.335.941-1.22.941s-1.157-.616-1.22-.941c-.027-.14-.033-.332-.032-.498v-9.672h-3.215v9.372c-.005.242.018.733.03.864.218 2.438 2.097 3.225 4.436 3.225s4.215-.787 4.44-3.225a12.83 12.83 0 0 0 .032-.864v-9.372h-3.223v9.672h.001zm25.309-3.946v1.915h1.302v1.896c.004.165-.002.347-.03.496-.057.352-.381.946-1.299.946s-1.243-.595-1.302-.946c-.025-.15-.032-.332-.028-.496v-5.983c0-.213.013-.445.052-.614.068-.322.342-.949 1.266-.949.973 0 1.213.662 1.272.949.037.181.04.494.04.493v.737h3.206v-.437c-.001 0 .011-.447-.026-.855-.236-2.459-2.212-3.233-4.465-3.233s-4.184.78-4.463 3.233a8.59 8.59 0 0 0-.056.855l-.001 5.501.044.864c.21 2.381 2.222 3.234 4.473 3.234s4.265-.853 4.476-3.234l.04-.864v-3.509h-4.502z" fill="#1428a0"/></g></svg>