<svg xmlns="http://www.w3.org/2000/svg" width="147" height="147" fill="none" xmlns:v="https://vecta.io/nano"><mask id="A" mask-type="alpha" maskUnits="userSpaceOnUse" x="0" y="0" width="147" height="147"><path fill="#c4c4c4" d="M0 0h147v147H0z"/></mask><g mask="url(#A)"><path d="M50.013 83c-5.085 0-9.806-1.543-12.957-4.403-2.381-2.161-3.525-5.097-3.525-8.119 0-2.985 1.193-5.941 3.524-8.091C39.982 59.689 45.149 58 50.013 58c5.383 0 9.692 1.371 12.985 4.395 2.343 2.151 3.476 5.094 3.476 8.084 0 2.898-1.202 5.984-3.476 8.118C59.931 81.476 55.111 83 50.013 83v-3.297c2.699 0 5.203-.943 6.952-2.703 1.736-1.748 2.546-3.896 2.546-6.522 0-2.516-.873-4.867-2.546-6.535-1.725-1.719-4.289-2.686-6.952-2.686-2.671 0-5.236.957-6.963 2.686-1.664 1.667-2.539 4.026-2.539 6.535 0 2.501.885 4.859 2.539 6.522 1.728 1.739 4.284 2.702 6.963 2.702V83zM12.844 58.012c-2.72 0-5.811.515-8.437 1.701C1.984 60.807 0 62.576 0 65.508c-.001 2.641 1.658 4.188 1.613 4.145.706.657 1.842 1.776 4.813 2.434 1.328.294 4.166.745 6.993 1.044 2.806.299 5.568.584 6.692.872.894.23 2.395.543 2.395 2.247 0 1.697-1.581 2.214-1.856 2.327s-2.172.99-5.582.99c-2.518 0-5.545-.766-6.648-1.165-1.272-.458-2.606-1.064-3.851-2.601-.31-.381-.798-1.43-.798-2.468H.685v8.748h3.431v-1.182c0-.135.166-.688.742-.425.717.329 2.82 1.177 5.019 1.641 1.803.382 2.966.655 5.208.655 3.658 0 5.623-.603 6.982-.995 1.28-.371 2.861-1.036 4.146-2.072.696-.56 2.221-1.996 2.221-4.603 0-2.502-1.328-4.056-1.795-4.528-.636-.644-1.413-1.143-2.223-1.528-.706-.336-1.819-.739-2.73-.965-1.768-.439-5.767-.981-7.679-1.183-2.005-.212-5.483-.503-6.873-.938-.421-.132-1.28-.546-1.28-1.554 0-.717.393-1.325 1.169-1.816 1.232-.781 3.72-1.266 6.314-1.266 3.067-.011 5.663.698 7.315 1.445.562.254 1.219.618 1.741 1.049.589.486 1.416 1.496 1.715 2.904h2.771v-7.615h-3.094v.885c0 .286-.292.657-.843.35-1.385-.735-5.3-2.32-10.099-2.327h.001zm67.806 1.384l15.093 13.778-.155-9.276c-.015-1.216-.237-1.724-1.537-1.724h-2.838v-2.775h12.905v2.775h-2.768c-1.327 0-1.411.429-1.427 1.724l.234 17.725h-4.419L78.353 65.928l.004 11.138c.015 1.211.071 1.781 1.305 1.781h3.1v2.774H70.087v-2.774h2.963c1.107 0 1.063-1.067 1.063-1.844V64.003c0-.839-.116-1.828-1.854-1.828h-2.404v-2.779H80.65zm38.215 19.446c.121 0 .659-.016.764-.048.298-.094.5-.309.593-.533.04-.094.059-.51.059-.601l.003-4.385c0-.105-.008-.151-.185-.386-.194-.257-7.906-9.096-8.259-9.485-.438-.483-1.208-1.23-2.377-1.23h-2.682v-2.776h15.135v2.773h-1.825c-.422 0-.702.405-.342.855l5.14 6.225c.048.066.088.081.153.021s5.22-6.19 5.26-6.239c.246-.297.079-.86-.449-.86h-1.872v-2.776h12.404v2.776h-2.771c-1.006 0-1.415.188-2.171 1.053l-8.352 9.638c-.111.127-.101.305-.101.411v4.385c0 .089.02.506.059.599.094.225.297.44.595.533.104.032.635.048.756.048h2.835v2.776h-15.056V78.84l2.686.002h0z" fill="#000"/></g></svg>