<svg xmlns="http://www.w3.org/2000/svg" width="92" height="92" fill="none" xmlns:v="https://vecta.io/nano"><mask id="A" mask-type="alpha" maskUnits="userSpaceOnUse" x="0" y="0" width="92" height="92"><path fill="#c4c4c4" d="M0 0h92v92H0z"/></mask><g mask="url(#A)"><path d="M35.994 58c-3.152 0-6.077-.926-8.03-2.642-1.475-1.297-2.184-3.058-2.184-4.871 0-1.791.739-3.565 2.184-4.854C29.778 44.014 32.98 43 35.994 43c3.336 0 6.006.823 8.047 2.637 1.452 1.291 2.154 3.056 2.154 4.85a6.69 6.69 0 0 1-2.154 4.871C42.141 57.086 39.154 58 35.994 58v-1.978c1.673 0 3.224-.566 4.308-1.621 1.076-1.049 1.578-2.338 1.578-3.913 0-1.509-.541-2.92-1.578-3.921-1.069-1.031-2.658-1.612-4.308-1.612-1.655 0-3.245.574-4.315 1.612-1.031 1.001-1.573 2.416-1.573 3.921s.548 2.915 1.573 3.914c1.071 1.043 2.655 1.621 4.315 1.621V58zM12.96 43.007c-1.686 0-3.601.309-5.228 1.021C6.229 44.684 5 45.745 5 47.505c-.001 1.585 1.028 2.513 1 2.487.437.394 1.142 1.066 2.983 1.46.823.176 2.582.447 4.334.626l4.147.523c.554.138 1.484.326 1.484 1.348s-.98 1.329-1.15 1.396-1.346.594-3.459.594c-1.56 0-3.436-.459-4.12-.699-.788-.275-1.615-.638-2.386-1.561-.192-.229-.494-.858-.494-1.481H5.425v5.249h2.126v-.709c0-.081.103-.413.46-.255.444.198 1.748.706 3.111.985 1.117.229 1.838.393 3.228.393 2.267 0 3.485-.362 4.327-.597.793-.222 1.773-.622 2.569-1.243.431-.336 1.377-1.198 1.377-2.762a3.83 3.83 0 0 0-1.112-2.717c-.394-.386-.876-.686-1.378-.916-.437-.202-1.127-.444-1.692-.579-1.096-.264-3.574-.589-4.759-.71l-4.259-.563c-.261-.079-.793-.328-.793-.932 0-.43.243-.795.724-1.09.763-.468 2.305-.76 3.913-.76 1.9-.007 3.51.419 4.533.867.348.152.756.371 1.079.63a3.17 3.17 0 0 1 1.063 1.742h1.717v-4.569h-1.918v.531c0 .172-.181.394-.523.21-.858-.441-3.284-1.392-6.259-1.396h0zm42.021.83l9.354 8.267-.096-5.566c-.009-.73-.147-1.035-.953-1.035h-1.759v-1.665h7.998v1.665h-1.716c-.822 0-.874.258-.884 1.035l.145 10.635h-2.739l-10.774-9.416.002 6.683c.009.726.044 1.069.808 1.069h1.921v1.664h-7.854v-1.664h1.836c.686 0 .659-.64.659-1.106v-7.8c0-.503-.072-1.097-1.149-1.097h-1.49v-1.668h6.69zm23.683 11.668c.075 0 .409-.009.473-.029.185-.056.31-.185.368-.32.025-.056.037-.306.037-.36l.001-2.631c0-.063-.005-.091-.114-.232-.12-.154-4.899-5.457-5.118-5.691-.272-.29-.748-.738-1.473-.738h-1.662v-1.666h9.379v1.664h-1.131c-.261 0-.435.243-.212.513l3.186 3.735c.029.039.055.049.095.013a1415.44 1415.44 0 0 0 3.26-3.743c.152-.178.049-.516-.279-.516h-1.16v-1.666H92v1.666h-1.717c-.623 0-.877.113-1.345.632l-5.176 5.783c-.069.077-.063.183-.063.246v2.631c0 .053.012.303.037.36a.58.58 0 0 0 .369.32c.065.02.394.029.469.029h1.757v1.665h-9.331v-1.666l1.665.001h0z" fill="#000"/></g></svg>