<svg xmlns="http://www.w3.org/2000/svg" width="92" height="92" fill="none" xmlns:v="https://vecta.io/nano"><mask id="A" mask-type="alpha" maskUnits="userSpaceOnUse" x="0" y="0" width="92" height="92"><path fill="#c4c4c4" d="M0 0h92v92H0z"/></mask><g mask="url(#A)"><path d="M31.621 33.144c-.339.136-2.273 2.239-2.273 2.465 0 .147.418.667 1.097 1.357 1.448 1.481 1.425 1.481 2.895 0 .679-.69 1.097-1.21 1.097-1.346 0-.294-2.058-2.42-2.409-2.488a.81.81 0 0 0-.407.011zm39.457 6.683l-.871.328c-.192.079-.418.147-.509.147-.079 0-.373.158-.656.339s-.554.339-.611.339c-.124 0-.746.509-1.459 1.21-.554.532-1.776 2.194-1.776 2.409 0 .045-.136.385-.294.747-.803 1.798-.792 5.304 0 7.091l.294.758c0 .192 1.108 1.73 1.651 2.285.509.52 1.787 1.561 1.911 1.561.034 0 .373.147.769.328 1.685.769 1.38.746 8.618.746l7.068-.192c.283-.113.588-.203.679-.203.237 0 1.515-.656 2.273-1.154.351-.237.905-.701 1.244-1.052.633-.645 1.685-2.149 1.685-2.409 0-.079.056-.26.136-.396.418-.746.758-2.409.769-3.743 0-.916-.226-2.658-.396-3.065l-.328-.769c-.102-.238-.181-.475-.181-.52 0-.362-2.07-2.952-2.352-2.952-.057 0-.17-.079-.249-.17-.204-.249-1.708-1.142-2.036-1.21-.328-.079-.916-.283-1.448-.498-.577-.249-13.209-.203-13.933.045zm13.65 3.166c.317.113.645.26.735.328.079.068.26.158.407.204.362.102 1.832 1.504 2.024 1.922.09.181.283.543.43.792.158.249.283.599.283.792 0 .181.079.679.181 1.097.158.645.17.871.056 1.357a22.16 22.16 0 0 0-.237 1.188c-.113.735-.667 1.73-1.346 2.443-.588.622-1.742 1.436-2.024 1.436-.113 0-.294.068-.418.147-.509.339-1.708.419-6.74.419-3.936 0-5.191-.034-5.802-.158-.43-.09-.837-.226-.893-.283-.068-.068-.238-.124-.362-.124-.136 0-.464-.158-.713-.339-.26-.192-.52-.339-.577-.339s-.385-.305-.724-.679c-.645-.712-1.323-1.855-1.323-2.217 0-.124-.079-.418-.17-.667-.091-.26-.158-.859-.158-1.414s.068-1.154.158-1.414c.09-.249.17-.554.17-.667 0-.26.577-1.312 1.041-1.911.317-.396 1.3-1.199 1.889-1.527.147-.09.554-.249.905-.362.588-.192 1.108-.215 6.627-.215 5.508-.011 6.05 0 6.582.192zM.701 40.178C.17 40.529 0 40.856 0 41.603c0 .611.057.746.452 1.334l.565.848.43.599c.17.226.305.452.305.498s.158.271.339.509c.192.238.339.464.339.509s.158.271.339.509c.192.238.339.464.339.509s.136.249.317.452c.294.351.532.712.95 1.448.102.192.237.373.294.407.079.057.69.927 1.154 1.651l.848 1.244.848 1.244c2.443 3.743 3.302 4.478 5.813 4.908.656.113 2.013-.158 2.782-.565.554-.294 2.375-2.07 2.375-2.318 0-.079.147-.328.339-.532.181-.215.339-.43.339-.475 0-.057.136-.271.305-.498.181-.226 1.04-1.504 1.934-2.839l1.73-2.465c.057-.023.102-.09.102-.136 0-.057.237-.441.531-.871l1.843-2.703.927-1.368c.882-1.289 1.018-1.787.724-2.578-.136-.339-.317-.566-.588-.724-.509-.305-1.346-.317-1.776-.023-.317.204-1.018 1.097-1.391 1.764-.102.181-.226.362-.26.396a1.6 1.6 0 0 0-.181.249c-.057.102-.418.622-.792 1.165l-.792 1.165c-.056.102-.249.373-.418.599-.181.226-.317.452-.317.498s-.136.271-.305.498l-.43.588c-.475.758-.973 1.436-1.12 1.561-.102.079-.181.204-.181.26 0 .068-.158.305-.339.543-.192.238-.339.464-.339.509s-.147.271-.339.509c-.181.238-.339.464-.339.498s-.215.373-.475.735l-.882 1.255c-.837 1.255-1.64 1.923-2.296 1.923-.611 0-1.267-.464-1.957-1.402l-2.364-3.438a5.94 5.94 0 0 0-.396-.588l-.396-.588c-.057-.102-.418-.633-.792-1.165l-.848-1.233c-.09-.158-.418-.645-.735-1.108l-.611-.939c-.023-.056-.305-.464-.633-.905l-2.024-2.974c-.283-.543-1.651-.78-2.251-.373zm30.298 0c-.17.113-.418.362-.532.532-.204.317-.215.679-.215 8.38l.204 8.391c.204.385.973.803 1.436.803.418 0 .973-.26 1.301-.622l.283-.305.034-8.097c.034-9.013.068-8.584-.712-9.07-.475-.294-1.357-.305-1.798-.011zm6.118 0c-.826.543-1.007 1.663-.418 2.477.192.26.339.509.339.543s.158.26.339.498c.192.237.339.464.339.498 0 .056.837 1.255 1.12 1.606.045.056.158.238.237.396.079.147.181.294.226.328.056.045.758 1.052 1.074 1.549l.701 1.041 1.923 2.816 1.504 2.228c1.821 2.793 2.771 3.596 4.75 4.015.78.17.927.17 1.753 0 .498-.102 1.142-.294 1.436-.441.599-.294 2.352-1.934 2.352-2.205 0-.034.158-.283.339-.543l1.335-1.956 1.923-2.827 1.074-1.572a17.23 17.23 0 0 1 .622-.871l.475-.724a11.22 11.22 0 0 1 .792-1.187 66.09 66.09 0 0 0 1.527-2.239l.418-.599c.746-.984.667-2.25-.147-2.771-.577-.362-1.38-.373-1.877-.023-.204.147-.859.995-1.459 1.9l-1.674 2.477-.746 1.097-2.567 3.675c-.079.068-.147.17-.147.215 0 .057-.271.475-.588.95l-.712 1.063c-.056.113-.238.373-.396.588l-.396.577c-.803 1.312-1.753 2.137-2.477 2.137-.418 0-1.233-.452-1.606-.905-.192-.215-.599-.78-.905-1.244l-1.097-1.617-.532-.837c0-.034-.147-.249-.328-.475l-1.504-2.16-3.336-4.886-.599-.939c0-.147-1.074-1.493-1.334-1.663-.419-.271-1.335-.271-1.753.011z" fill="#00bfff"/></g></svg>