<svg xmlns="http://www.w3.org/2000/svg" width="147" height="148" fill="none" xmlns:v="https://vecta.io/nano"><mask id="A" mask-type="alpha" maskUnits="userSpaceOnUse" x="0" y="0" width="147" height="148"><path fill="#c4c4c4" d="M0 0h147v147.35H0z"/></mask><g mask="url(#A)"><path d="M54.761 50.047c-.502.201-3.365 3.314-3.365 3.649 0 .218.619.988 1.624 2.009 2.143 2.193 2.109 2.193 4.285 0 1.004-1.021 1.624-1.791 1.624-1.992 0-.435-3.047-3.582-3.565-3.683-.201-.05-.469-.033-.603.017zm58.402 9.893l-1.289.485c-.284.117-.619.218-.753.218-.117 0-.552.234-.971.502s-.82.502-.904.502c-.184 0-1.105.753-2.159 1.791-.82.787-2.628 3.247-2.628 3.565 0 .067-.201.569-.435 1.105-1.189 2.661-1.172 7.851 0 10.495.234.536.435 1.038.435 1.122 0 .285 1.64 2.561 2.444 3.381.753.77 2.645 2.31 2.829 2.31.05 0 .552.218 1.138.486 2.494 1.138 2.042 1.105 12.755 1.105 8.822 0 9.776-.034 10.462-.285.418-.167.87-.301 1.004-.301.352 0 2.243-.971 3.365-1.707a14.01 14.01 0 0 0 1.841-1.557c.938-.954 2.494-3.18 2.494-3.565 0-.117.084-.385.201-.586.62-1.105 1.122-3.565 1.138-5.541 0-1.356-.334-3.934-.585-4.536l-.486-1.138c-.151-.352-.268-.703-.268-.77 0-.536-3.063-4.369-3.481-4.369-.084 0-.252-.117-.369-.251-.301-.368-2.527-1.691-3.013-1.791-.485-.117-1.356-.419-2.142-.737-.854-.368-19.552-.301-20.623.067zm20.204 4.687c.469.167.954.385 1.088.486a2.02 2.02 0 0 0 .603.301c.535.151 2.712 2.226 2.996 2.846a23.8 23.8 0 0 0 .636 1.172c.235.368.419.887.419 1.172 0 .268.117 1.004.268 1.624.234.954.251 1.289.083 2.009-.117.485-.268 1.272-.351 1.758-.168 1.088-.988 2.561-1.992 3.616-.871.921-2.578 2.126-2.997 2.126-.167 0-.435.1-.619.218-.753.502-2.527.619-9.976.619-5.826 0-7.684-.05-8.587-.234-.637-.134-1.239-.335-1.323-.418-.1-.1-.351-.184-.536-.184-.2 0-.686-.234-1.054-.502-.385-.285-.77-.502-.854-.502s-.569-.452-1.071-1.004c-.954-1.055-1.959-2.745-1.959-3.281 0-.184-.117-.619-.251-.988-.134-.385-.234-1.272-.234-2.092s.1-1.707.234-2.092c.134-.368.251-.82.251-.988 0-.385.854-1.942 1.54-2.829.469-.586 1.925-1.774 2.796-2.26.217-.134.82-.368 1.339-.536.87-.285 1.64-.318 9.809-.318 8.152-.017 8.955 0 9.742.284zM8.996 60.459c-.787.519-1.038 1.004-1.038 2.109 0 .904.084 1.105.67 1.975l.837 1.255.636.887c.251.335.452.67.452.737s.234.402.502.753c.284.352.502.686.502.753s.234.402.502.753c.285.352.502.686.502.753s.201.368.469.669c.435.519.787 1.055 1.406 2.143.151.285.352.552.435.603.117.084 1.021 1.373 1.707 2.444l1.255 1.841 1.255 1.841c3.616 5.541 4.888 6.629 8.604 7.265.971.167 2.98-.234 4.118-.837.82-.435 3.515-3.063 3.515-3.431 0-.117.218-.485.502-.787.268-.318.502-.636.502-.703 0-.084.201-.402.452-.737.268-.335 1.54-2.226 2.862-4.201s2.477-3.632 2.561-3.649c.084-.034.151-.134.151-.201 0-.084.352-.653.787-1.289l2.728-4.001c.134-.218.753-1.121 1.373-2.025 1.306-1.908 1.507-2.645 1.071-3.816-.201-.502-.469-.837-.87-1.071-.753-.452-1.992-.469-2.628-.034-.469.301-1.507 1.624-2.059 2.611-.151.268-.335.536-.385.586a2.35 2.35 0 0 0-.268.368c-.084.151-.619.921-1.172 1.724l-1.172 1.724c-.084.151-.368.552-.619.887-.268.335-.469.67-.469.737s-.201.402-.452.737c-.268.335-.536.72-.636.87-.703 1.121-1.44 2.126-1.657 2.31-.151.117-.268.301-.268.385 0 .1-.234.452-.502.803-.285.352-.502.686-.502.753s-.218.402-.502.753c-.268.352-.502.686-.502.736s-.318.552-.703 1.088a84.32 84.32 0 0 0-1.306 1.858c-1.239 1.858-2.427 2.846-3.398 2.846-.904 0-1.875-.686-2.896-2.076-.937-1.256-3.113-4.436-3.498-5.089-.084-.167-.352-.552-.586-.87a13.85 13.85 0 0 1-.586-.87c-.084-.151-.619-.937-1.172-1.724l-1.255-1.825c-.134-.234-.619-.954-1.088-1.641-.452-.669-.87-1.289-.904-1.389-.034-.084-.452-.686-.937-1.339-1.004-1.389-2.779-3.984-2.996-4.402-.418-.803-2.444-1.155-3.331-.552zm44.844 0a3.51 3.51 0 0 0-.787.787c-.301.469-.318 1.004-.318 12.404 0 11.031.017 11.952.301 12.42.301.569 1.44 1.189 2.126 1.189.619 0 1.439-.385 1.925-.921l.418-.452.05-11.985c.05-13.341.1-12.705-1.055-13.425-.703-.435-2.009-.452-2.661-.017zm9.056 0c-1.222.803-1.49 2.461-.619 3.666.284.385.502.753.502.803s.234.385.502.737c.285.352.502.686.502.737 0 .084 1.239 1.858 1.657 2.377a4.4 4.4 0 0 1 .352.586c.117.218.268.435.335.485.084.067 1.121 1.557 1.59 2.293l1.038 1.54 2.846 4.168 2.226 3.298c2.695 4.135 4.101 5.323 7.03 5.942 1.155.251 1.373.251 2.595 0 .736-.151 1.691-.435 2.126-.653.887-.435 3.482-2.862 3.482-3.264 0-.05.234-.418.502-.803l1.975-2.896 2.846-4.185 1.59-2.327c.1-.167.519-.753.921-1.289l.703-1.071c0-.084 1.021-1.607 1.172-1.758.1-.1 2.008-2.896 2.26-3.314l.62-.887c1.104-1.456.987-3.331-.218-4.101-.854-.536-2.042-.552-2.779-.034-.301.218-1.272 1.473-2.159 2.812l-2.477 3.666-1.105 1.624-3.8 5.44c-.117.101-.218.251-.218.318 0 .084-.402.703-.87 1.406l-1.055 1.573c-.084.167-.352.552-.586.871l-.586.854c-1.188 1.942-2.595 3.164-3.666 3.164-.619 0-1.825-.669-2.377-1.339-.285-.318-.887-1.155-1.339-1.841l-1.624-2.394-.787-1.239c0-.05-.218-.368-.485-.703l-2.226-3.197-4.938-7.231-.887-1.389c0-.218-1.59-2.209-1.975-2.461-.619-.402-1.975-.402-2.595.017z" fill="#00bfff"/></g></svg>