<svg xmlns="http://www.w3.org/2000/svg" width="92" height="92" fill="none" xmlns:v="https://vecta.io/nano"><mask id="A" mask-type="alpha" maskUnits="userSpaceOnUse" x="0" y="0" width="92" height="92"><path fill="#c4c4c4" d="M0 0h92v92H0z"/></mask><g mask="url(#A)"><path d="M85.512 20h-11.04c-.462 0-.852.39-.852.852v50.305c0 .462.391.852.852.852h11.04c.462 0 .852-.391.852-.852v-50.34c0-.462-.391-.817-.852-.817zm-37.665 0H5.852c-.461 0-.852.39-.852.852v50.305c0 .462.391.852.852.852h11.04c.461 0 .852-.391.852-.852V31.645c0-.462.39-.852.852-.852h23.749c6.674 0 8.591 5.112 8.591 8.414v31.916c0 .462.39.852.852.852h11.04c.461 0 .852-.391.852-.852V35.408c0-2.947-.355-7.171-4.153-10.899C55.515 20.639 51.894 20 47.847 20zm-7.738 20.023H28.536c-.461 0-.852.391-.852.852v30.283c0 .462.39.817.852.817h11.573c.462 0 .852-.391.852-.817V40.875a.84.84 0 0 0-.852-.852z" fill="#ff6700"/></g></svg>