<svg xmlns="http://www.w3.org/2000/svg" width="147" height="147" fill="none" xmlns:v="https://vecta.io/nano"><mask id="A" mask-type="alpha" maskUnits="userSpaceOnUse" x="0" y="0" width="147" height="147"><path fill="#f1f1f1" d="M0 0h147v147H0z"/></mask><g mask="url(#A)"><path d="M113.512 47h-11.041c-.461 0-.852.391-.852.852v50.306c0 .462.391.852.852.852h11.041c.461 0 .852-.391.852-.852V47.817c0-.462-.391-.816-.852-.816zm-37.665 0H33.852c-.461 0-.852.391-.852.852v50.306c0 .462.391.852.852.852h11.04c.461 0 .852-.391.852-.852V58.645c0-.462.39-.852.852-.852h23.749c6.674 0 8.591 5.112 8.591 8.414v31.916c0 .462.39.852.852.852h11.04c.462 0 .852-.391.852-.852V62.408c0-2.947-.355-7.171-4.153-10.899C83.515 47.639 79.894 47 75.847 47zm-7.738 20.023H56.536c-.462 0-.852.391-.852.852v30.283c0 .462.391.817.852.817h11.573c.461 0 .852-.391.852-.817V67.875a.84.84 0 0 0-.852-.852z" fill="#ff6700"/></g></svg>