<svg width="17" height="15" viewBox="0 0 17 15" fill="none" xmlns="http://www.w3.org/2000/svg">
<path d="M15.0758 5.72813L10.8606 5.11553L8.97635 1.29551C8.92489 1.19092 8.84022 1.10626 8.73563 1.05479C8.47332 0.925299 8.15457 1.03321 8.02342 1.29551L6.13914 5.11553L1.92401 5.72813C1.8078 5.74473 1.70155 5.79952 1.6202 5.88253C1.52185 5.98361 1.46766 6.1196 1.46953 6.26061C1.4714 6.40163 1.52917 6.53614 1.63016 6.63458L4.67987 9.60792L3.95936 13.8065C3.94246 13.9041 3.95327 14.0046 3.99056 14.0964C4.02784 14.1882 4.09012 14.2678 4.17031 14.326C4.25051 14.3843 4.34542 14.4189 4.44429 14.4259C4.54316 14.433 4.64202 14.4122 4.72967 14.3659L8.49989 12.3837L12.2701 14.3659C12.373 14.4207 12.4926 14.439 12.6071 14.4191C12.896 14.3692 13.0902 14.0953 13.0404 13.8065L12.3199 9.60792L15.3696 6.63458C15.4526 6.55323 15.5074 6.44698 15.524 6.33077C15.5688 6.04024 15.3663 5.7713 15.0758 5.72813Z" fill="#DF38A5" stroke="#DF38A5"/>
</svg>
