<svg width="25" height="25" viewBox="0 0 25 25" fill="none" xmlns="http://www.w3.org/2000/svg">
<path fill-rule="evenodd" clip-rule="evenodd" d="M12.5 23.4375C15.4008 23.4375 18.1828 22.2852 20.234 20.234C22.2852 18.1828 23.4375 15.4008 23.4375 12.5C23.4375 9.59919 22.2852 6.8172 20.234 4.76602C18.1828 2.71484 15.4008 1.5625 12.5 1.5625C9.59919 1.5625 6.8172 2.71484 4.76602 4.76602C2.71484 6.8172 1.5625 9.59919 1.5625 12.5C1.5625 15.4008 2.71484 18.1828 4.76602 20.234C6.8172 22.2852 9.59919 23.4375 12.5 23.4375ZM12.5 25C15.8152 25 18.9946 23.683 21.3388 21.3388C23.683 18.9946 25 15.8152 25 12.5C25 9.18479 23.683 6.00537 21.3388 3.66117C18.9946 1.31696 15.8152 0 12.5 0C9.18479 0 6.00537 1.31696 3.66117 3.66117C1.31696 6.00537 0 9.18479 0 12.5C0 15.8152 1.31696 18.9946 3.66117 21.3388C6.00537 23.683 9.18479 25 12.5 25Z" fill="#484848"/>
<path fill-rule="evenodd" clip-rule="evenodd" d="M17.1407 7.76564C17.3593 7.54887 17.6545 7.42688 17.9624 7.42603C18.2703 7.42518 18.5662 7.54554 18.7861 7.7611C19.0059 7.97665 19.1321 8.27007 19.1374 8.57793C19.1426 8.88579 19.0265 9.18334 18.8141 9.40626L12.5766 17.2031C12.4694 17.3186 12.34 17.4113 12.1962 17.4756C12.0523 17.5399 11.897 17.5746 11.7395 17.5775C11.582 17.5804 11.4255 17.5515 11.2793 17.4926C11.1332 17.4336 11.0005 17.3458 10.8891 17.2344L6.75628 13.1C6.64115 12.9927 6.5488 12.8634 6.48475 12.7196C6.4207 12.5759 6.38626 12.4207 6.38348 12.2633C6.38071 12.106 6.40965 11.9497 6.46859 11.8038C6.52753 11.6578 6.61526 11.5253 6.72654 11.414C6.83781 11.3027 6.97037 11.215 7.11629 11.1561C7.26221 11.0971 7.4185 11.0682 7.57585 11.071C7.7332 11.0737 7.88837 11.1082 8.03212 11.1722C8.17587 11.2363 8.30525 11.3286 8.41253 11.4438L11.6844 14.7141L17.111 7.80001C17.1207 7.78791 17.1311 7.77643 17.1422 7.76564H17.1407Z" fill="#484848"/>
</svg>
