<svg width="25" height="25" viewBox="0 0 25 25" fill="none" xmlns="http://www.w3.org/2000/svg">
<path d="M23.0469 4.6875H18.75V1.95312H17.1875V4.6875H7.8125V1.95312H6.25V4.6875H1.95312C1.64244 4.68786 1.34457 4.81144 1.12488 5.03113C0.905193 5.25082 0.781612 5.54869 0.78125 5.85938V22.2656C0.781612 22.5763 0.905193 22.8742 1.12488 23.0939C1.34457 23.3136 1.64244 23.4371 1.95312 23.4375H23.0469C23.3576 23.4371 23.6554 23.3136 23.8751 23.0939C24.0948 22.8742 24.2184 22.5763 24.2188 22.2656V5.85938C24.2184 5.54869 24.0948 5.25082 23.8751 5.03113C23.6554 4.81144 23.3576 4.68786 23.0469 4.6875ZM22.6562 21.875H2.34375V6.25H6.25V8.20312H7.8125V6.25H17.1875V8.20312H18.75V6.25H22.6562V21.875Z" fill="#484848"/>
<path d="M5.46875 10.9375H7.03125V12.5H5.46875V10.9375Z" fill="#484848"/>
<path d="M9.76562 10.9375H11.3281V12.5H9.76562V10.9375Z" fill="#484848"/>
<path d="M13.6719 10.9375H15.2344V12.5H13.6719V10.9375Z" fill="#484848"/>
<path d="M17.9688 10.9375H19.5312V12.5H17.9688V10.9375Z" fill="#484848"/>
<path d="M5.46875 14.4531H7.03125V16.0156H5.46875V14.4531Z" fill="#484848"/>
<path d="M9.76562 14.4531H11.3281V16.0156H9.76562V14.4531Z" fill="#484848"/>
<path d="M13.6719 14.4531H15.2344V16.0156H13.6719V14.4531Z" fill="#484848"/>
<path d="M17.9688 14.4531H19.5312V16.0156H17.9688V14.4531Z" fill="#484848"/>
<path d="M5.46875 17.9688H7.03125V19.5312H5.46875V17.9688Z" fill="#484848"/>
<path d="M9.76562 17.9688H11.3281V19.5312H9.76562V17.9688Z" fill="#484848"/>
<path d="M13.6719 17.9688H15.2344V19.5312H13.6719V17.9688Z" fill="#484848"/>
<path d="M17.9688 17.9688H19.5312V19.5312H17.9688V17.9688Z" fill="#484848"/>
</svg>
